<?xml version="1.0" encoding="iso-8859-1"?>
<!-- Generator: Adobe Illustrator 19.1.0, SVG Export Plug-In . SVG Version: 6.00 Build 0)  -->
<!DOCTYPE svg PUBLIC "-//W3C//DTD SVG 1.1//EN" "http://www.w3.org/Graphics/SVG/1.1/DTD/svg11.dtd">
<svg version="1.1" id="Layer_1" xmlns="http://www.w3.org/2000/svg" xmlns:xlink="http://www.w3.org/1999/xlink" x="0px" y="0px"
	 viewBox="-447 264 16 35" style="enable-background:new -447 264 16 35;" xml:space="preserve">
<path d="M-435,291h-8c-2.2,0-4-1.6-4-3.7v-19.1c0-2.1,1.8-4.2,4-4.2h8c2.2,0,4,3.1,4,5.2v18.1C-431,289.4-432.8,291-435,291z
	 M-433,271.3c0-0.7-0.6-1.3-1.4-1.3h-9.3c-0.7,0-1.3,0.6-1.3,1.3v3.7h12C-433,275-433,271.3-433,271.3z M-433,284h-12v1.7
	c0,0.7,1.9,1.3,2.6,1.3h6.8c0.7,0,2.6-0.6,2.6-1.3C-433,285.7-433,284-433,284z M-432,299h-3v-1h3V299z M-432,297h-3v-2h3V297z
	 M-432,291v3h-3v-2c0,0,0.8-0.1,1.5-0.4C-432.8,291.3-432,291-432,291z M-443,299h-3v-1h3V299z M-443,297h-3v-2h3V297z M-443,292v2
	h-3v-3.3c0,0,0.7,0.6,1.5,0.9C-443.8,291.9-443,292-443,292z"/>
</svg>
