<svg xmlns="http://www.w3.org/2000/svg" preserveAspectRatio="xMidYMid" width="40" height="40" viewBox="0 0 40 40"><path d="M24 30L16 30C13.8 30 12 28.4 12 26.3L12 7.2C12 5.1 13.8 3 16 3L24 3C26.2 3 28 6.1 28 8.2L28 26.3C28 28.4 26.2 30 24 30ZM26 10.3C26 9.6 25.4 9 24.6 9L15.3 9C14.6 9 14 9.6 14 10.3 14 11 14 14 14 14L26 14C26 14 26 11 26 10.3ZM26 23L14 23C14 23 14 24 14 24.7 14 25.4 15.9 26 16.6 26L23.4 26C24.1 26 26 25.4 26 24.7 26 24 26 23 26 23ZM27 38L24 38 24 37 27 37 27 38ZM27 36L24 36 24 34 27 34 27 36ZM27 30L27 33 24 33 24 31C24 31 24.8 30.9 25.5 30.6 26.2 30.3 27 30 27 30ZM16 38L13 38 13 37 16 37 16 38ZM16 36L13 36 13 34 16 34 16 36ZM16 31L16 33 13 33 13 29.7C13 29.7 13.7 30.3 14.5 30.6 15.2 30.9 16 31 16 31Z" class="cls-1"/></svg>
