<?xml version="1.0" encoding="iso-8859-1"?>
<!-- Generator: Adobe Illustrator 19.1.0, SVG Export Plug-In . SVG Version: 6.00 Build 0)  -->
<!DOCTYPE svg PUBLIC "-//W3C//DTD SVG 1.1//EN" "http://www.w3.org/Graphics/SVG/1.1/DTD/svg11.dtd">
<svg version="1.1" id="Layer_1" xmlns="http://www.w3.org/2000/svg" xmlns:xlink="http://www.w3.org/1999/xlink" x="0px" y="0px"
	 viewBox="-1451 1687.7 20 11" style="enable-background:new -1451 1687.7 20 11;" xml:space="preserve">
<title>icon_attachment</title>
<path d="M-1451,1693.2c0-3,2.5-5.5,5.5-5.5h10.5c2.2,0,4,1.8,4,4s-1.8,4-4,4h-8.5c-1.4,0-2.5-1.1-2.5-2.5s1.1-2.5,2.5-2.5h7.5v2
	h-7.6c-0.6,0-0.6,1,0,1h8.6c1.1,0,2-0.9,2-2s-0.9-2-2-2h-10.5c-1.9,0-3.5,1.6-3.5,3.5s1.6,3.5,3.5,3.5h9.5v2h-9.5
	C-1448.5,1698.7-1451,1696.2-1451,1693.2z"/>
</svg>
