<?xml version="1.0" encoding="utf-8"?>
<!-- Generator: Adobe Illustrator 19.1.0, SVG Export Plug-In . SVG Version: 6.00 Build 0)  -->
<!DOCTYPE svg PUBLIC "-//W3C//DTD SVG 1.1//EN" "http://www.w3.org/Graphics/SVG/1.1/DTD/svg11.dtd">
<svg version="1.1" id="Layer_1" xmlns="http://www.w3.org/2000/svg" xmlns:xlink="http://www.w3.org/1999/xlink" x="0px" y="0px"
	 viewBox="-982 1412.7 20 11" style="enable-background:new -982 1412.7 20 11;" xml:space="preserve">
<title>icon_attachment</title>
<desc>Created with Sketch.</desc>
<g id="Page-1">
	<g id="Expenses" transform="translate(-1070.000000, -212.000000)">
		<path id="icon_attachment" d="M88,1630.2c0-3,2.5-5.5,5.5-5.5H104c2.2,0,4,1.8,4,4c0,2.2-1.8,4-4,4h-8.5c-1.4,0-2.5-1.1-2.5-2.5
			s1.1-2.5,2.5-2.5h7.5v2h-7.6c-0.6,0-0.6,1,0,1h8.6c1.1,0,2-0.9,2-2s-0.9-2-2-2H93.5c-1.9,0-3.5,1.6-3.5,3.5c0,1.9,1.6,3.5,3.5,3.5
			h9.5v2h-9.5C90.5,1635.7,88,1633.2,88,1630.2L88,1630.2z"/>
	</g>
</g>
</svg>
