<?xml version="1.0" encoding="iso-8859-1"?>
<!-- Generator: Adobe Illustrator 19.1.0, SVG Export Plug-In . SVG Version: 6.00 Build 0)  -->
<!DOCTYPE svg PUBLIC "-//W3C//DTD SVG 1.1//EN" "http://www.w3.org/Graphics/SVG/1.1/DTD/svg11.dtd">
<svg version="1.1" id="Layer_1" xmlns="http://www.w3.org/2000/svg" xmlns:xlink="http://www.w3.org/1999/xlink" x="0px" y="0px"
	 viewBox="-439 241 80 80" style="enable-background:new -439 241 80 80;" xml:space="preserve">
<path style="fill:none;" d="M-403.4,304h8.8l-1.7-19h-5.4L-403.4,304z M-400.3,268l-1.3,14h5.2l-1.2-14H-400.3z"/>
<path style="fill:none;" d="M-409.6,265c0.4-0.7,1.3-1,2.2-1h7.4l-0.2,2h2.5l-0.3-2h7.4c0.8,0,2,0.4,2.4,1.1l20.2,34.2v-40.7
	c0-4.9-4.2-8.6-9.1-8.6h-44.2c-4.9,0-8.7,3.6-8.7,8.6V300L-409.6,265z"/>
<path d="M-374.2,241h-50c-8.3,0-14.8,6.4-14.8,14.6v50c0,8.3,6.5,15.4,14.8,15.4h50c8.2,0,15.2-7.1,15.2-15.4v-50
	C-359,247.4-366,241-374.2,241z M-421.3,250h44.2c4.9,0,9.1,3.6,9.1,8.6v40.7l-20.2-34.2c-0.4-0.7-1.5-1.1-2.4-1.1h-7.4l0.2,2h-2.5
	l0.2-2h-7.4c-0.8,0-1.7,0.3-2.2,1l-20.3,35v-41.4C-430,253.6-426.2,250-421.3,250z M-396.3,285l1.7,19h-8.9l1.7-19H-396.3z
	 M-401.6,282l1.2-14h2.7l1.2,14C-396.5,282-401.6,282-401.6,282z"/>
</svg>
