<svg xmlns="http://www.w3.org/2000/svg" version="1.1" x="0" y="0" viewBox="0 0 80 80" enable-background="new 0 0 80 80" xml:space="preserve"><polygon fill="none" points="35.6 63 44.4 63 42.7 44 37.3 44 "/><polygon fill="none" points="38.7 27 37.4 41 42.6 41 41.4 27 "/><path fill="none" d="M29.4 24c0.4-0.7 1.3-1 2.2-1H39l-0.2 2h2.5L41 23h7.4c0.8 0 2 0.4 2.4 1.1L71 58.3V17.6c0-4.9-4.2-8.6-9.1-8.6H39.8 17.7C12.8 9 9 12.6 9 17.6V59L29.4 24z"/><path d="M64.8 0h-25 -25C6.5 0 0 6.4 0 14.6v50C0 72.9 6.5 80 14.8 80h25 25C73 80 80 72.9 80 64.6v-50C80 6.4 73 0 64.8 0zM17.7 9h22.1 22.1c4.9 0 9.1 3.6 9.1 8.6v40.7L50.8 24.1c-0.4-0.7-1.5-1.1-2.4-1.1H41l0.2 2h-2.5l0.2-2h-7.4c-0.8 0-1.7 0.3-2.2 1L9 59V17.6C9 12.6 12.8 9 17.7 9zM42.7 44l1.7 19h-8.9l1.7-19H42.7zM37.4 41l1.2-14h2.7l1.2 14H37.4z"/></svg>
