<svg xmlns="http://www.w3.org/2000/svg" preserveAspectRatio="xMidYMid" width="40" height="40" viewBox="0 0 40 40"><path d="M31.5 32.5L28.7 29.6C31.3 27.3 33 23.8 33 20 33 16.7 31.7 13.7 29.7 11.4L32.5 8.5C35.3 11.5 37 15.6 37 20 37 24.9 34.9 29.4 31.5 32.5ZM20 31C13.9 31 9 26.1 9 20 9 13.9 13.9 9 20 9 26.1 9 31 13.9 31 20 31 26.1 26.1 31 20 31ZM20 13C16.1 13 13 16.1 13 20 13 23.9 16.1 27 20 27 23.9 27 27 23.9 27 20 27 16.1 23.9 13 20 13ZM7 20C7 23.8 8.7 27.3 11.3 29.6L8.5 32.5C5.1 29.4 3 24.9 3 20 3 15.6 4.7 11.5 7.5 8.5L10.3 11.4C8.3 13.7 7 16.7 7 20Z" class="cls-1"/></svg>
