<?xml version="1.0" encoding="iso-8859-1"?>
<!-- Generator: Adobe Illustrator 19.1.0, SVG Export Plug-In . SVG Version: 6.00 Build 0)  -->
<!DOCTYPE svg PUBLIC "-//W3C//DTD SVG 1.1//EN" "http://www.w3.org/Graphics/SVG/1.1/DTD/svg11.dtd">
<svg version="1.1" id="Layer_1" xmlns="http://www.w3.org/2000/svg" xmlns:xlink="http://www.w3.org/1999/xlink" x="0px" y="0px"
	 viewBox="-1431 1662.7 40 36" style="enable-background:new -1431 1662.7 40 36;" xml:space="preserve">
<ellipse cx="-1411" cy="1682.7" rx="6.4" ry="6.4"/>
<path d="M-1417,1662.7l-3.7,4h-6.3c-2.2,0-4,1.8-4,4v24c0,2.2,1.8,4,4,4h32c2.2,0,4-1.8,4-4v-24c0-2.2-1.8-4-4-4h-6.3l-3.7-4H-1417z
	 M-1411,1692.7c-5.5,0-10-4.5-10-10s4.5-10,10-10s10,4.5,10,10S-1405.5,1692.7-1411,1692.7z"/>
</svg>
