<?xml version="1.0" encoding="utf-8"?>
<!-- Generator: Adobe Illustrator 19.1.0, SVG Export Plug-In . SVG Version: 6.00 Build 0)  -->
<!DOCTYPE svg PUBLIC "-//W3C//DTD SVG 1.1//EN" "http://www.w3.org/Graphics/SVG/1.1/DTD/svg11.dtd">
<svg version="1.1" id="Layer_1" xmlns="http://www.w3.org/2000/svg" xmlns:xlink="http://www.w3.org/1999/xlink" x="0px" y="0px"
	 viewBox="-972 1399.7 40 36" style="enable-background:new -972 1399.7 40 36;" xml:space="preserve">
<g id="Mobile">
	<g id="Expense" transform="translate(-24.000000, -111.000000)">
		<g id="icon_camera_green_big" transform="translate(24.000000, 111.000000)">
			<ellipse id="Oval" cx="-952" cy="1419.7" rx="6.4" ry="6.4"/>
			<path id="Shape" d="M-958,1399.7l-3.7,4h-6.3c-2.2,0-4,1.8-4,4v24c0,2.2,1.8,4,4,4h32c2.2,0,4-1.8,4-4v-24c0-2.2-1.8-4-4-4h-6.3
				l-3.7-4H-958L-958,1399.7z M-952,1429.7c-5.5,0-10-4.5-10-10s4.5-10,10-10s10,4.5,10,10S-946.5,1429.7-952,1429.7L-952,1429.7z"
				/>
		</g>
	</g>
</g>
</svg>
