<?xml version="1.0" encoding="iso-8859-1"?>
<!-- Generator: Adobe Illustrator 19.1.0, SVG Export Plug-In . SVG Version: 6.00 Build 0)  -->
<!DOCTYPE svg PUBLIC "-//W3C//DTD SVG 1.1//EN" "http://www.w3.org/Graphics/SVG/1.1/DTD/svg11.dtd">
<svg version="1.1" id="Layer_1" xmlns="http://www.w3.org/2000/svg" xmlns:xlink="http://www.w3.org/1999/xlink" x="0px" y="0px"
	 viewBox="-923 538 19.1 19" style="enable-background:new -923 538 19.1 19;" xml:space="preserve">
<title>driver</title>
<g>
	<path d="M-913.5,549.2c1.9,0,3.9-2.4,3.9-4.9s0-4.9-3.9-4.9h-0.2l0.6-1.4c0,0-4.3,0.2-4.3,4.9v1.4
		C-917.4,546.8-915.4,549.2-913.5,549.2z"/>
	<path d="M-905,551.2c0,0-1.9-1.3-5.3-1.9c-2.3,1.5-4,1.5-6.3,0c-3.4,0.6-5.3,1.9-5.3,1.9l-1.1,4c0,0,4.7,1.8,9.4,1.8
		c4.8,0,9.6-1.8,9.7-1.8L-905,551.2z"/>
</g>
</svg>
