<?xml version="1.0" encoding="iso-8859-1"?>
<!-- Generator: Adobe Illustrator 19.1.0, SVG Export Plug-In . SVG Version: 6.00 Build 0)  -->
<!DOCTYPE svg PUBLIC "-//W3C//DTD SVG 1.1//EN" "http://www.w3.org/Graphics/SVG/1.1/DTD/svg11.dtd">
<svg version="1.1" id="Layer_1" xmlns="http://www.w3.org/2000/svg" xmlns:xlink="http://www.w3.org/1999/xlink" x="0px" y="0px"
	 viewBox="-750 673.9 24 28" style="enable-background:new -750 673.9 24 28;" xml:space="preserve">
<path d="M-727.1,679.8c0.3,0.3,0.5,0.7,0.8,1.2c0.2,0.5,0.3,1,0.3,1.4v18c0,0.4-0.1,0.8-0.4,1.1c-0.3,0.3-0.6,0.4-1.1,0.4h-21
	c-0.4,0-0.8-0.1-1.1-0.4c-0.3-0.3-0.4-0.6-0.4-1.1v-25c0-0.4,0.1-0.8,0.4-1.1c0.3-0.3,0.6-0.4,1.1-0.4h14c0.4,0,0.9,0.1,1.4,0.3
	s0.9,0.5,1.2,0.8L-727.1,679.8L-727.1,679.8z M-734,676v5.9h5.9c-0.1-0.3-0.2-0.5-0.3-0.6l-4.9-4.9
	C-733.5,676.2-733.7,676.1-734,676z M-728,699.9v-16h-6.5c-0.4,0-0.8-0.1-1.1-0.4c-0.3-0.3-0.4-0.6-0.4-1.1v-6.5h-12v24H-728z
	 M-743.3,696.2v1.7h4.4v-1.7h-1.2l1.6-2.5c0.1-0.1,0.1-0.2,0.2-0.3c0.1-0.1,0.1-0.2,0.1-0.2s0-0.1,0.1-0.1c0,0,0,0.1,0.1,0.2
	c0,0,0,0.1,0.1,0.1l0.1,0.1l0.1,0.1l1.7,2.5h-1.2v1.7h4.5v-1.7h-1.1l-3-4.3l3-4.4h1v-1.7h-4.4v1.7h1.2l-1.6,2.5
	c0,0.1-0.1,0.2-0.2,0.3s-0.1,0.2-0.1,0.2s0-0.1-0.1-0.2c-0.1-0.1-0.2-0.2-0.3-0.4l-1.7-2.5h1.2v-1.7h-4.5v1.7h1.1l3,4.2l-3,4.4
	L-743.3,696.2L-743.3,696.2z"/>
</svg>
