<svg xmlns="http://www.w3.org/2000/svg" version="1.1" x="0" y="0" viewBox="-283 406.9 24 28" enable-background="new -283 406.9 24 28" xml:space="preserve"><path d="M-260.1 412.8c0.3 0.3 0.5 0.7 0.8 1.2 0.2 0.5 0.3 1 0.3 1.4v18c0 0.4-0.1 0.8-0.4 1.1 -0.3 0.3-0.6 0.4-1.1 0.4h-21c-0.4 0-0.8-0.1-1.1-0.4 -0.3-0.3-0.4-0.6-0.4-1.1v-25c0-0.4 0.1-0.8 0.4-1.1 0.3-0.3 0.6-0.4 1.1-0.4h14c0.4 0 0.9 0.1 1.4 0.3 0.5 0.2 0.9 0.5 1.2 0.8L-260.1 412.8zM-267 409v5.9h5.9c-0.1-0.3-0.2-0.5-0.3-0.6l-4.9-4.9C-266.5 409.2-266.7 409.1-267 409L-267 409zM-261 432.9v-16h-6.5c-0.4 0-0.8-0.1-1.1-0.4 -0.3-0.3-0.4-0.6-0.4-1.1v-6.5h-12v24H-261zM-276.3 429.2v1.7h4.4v-1.7h-1.2l1.6-2.5c0.1-0.1 0.1-0.2 0.2-0.3s0.1-0.2 0.1-0.2c0 0 0-0.1 0.1-0.1h0c0 0 0 0.1 0.1 0.2 0 0 0 0.1 0.1 0.1 0 0 0.1 0.1 0.1 0.1 0 0 0.1 0.1 0.1 0.1l1.7 2.5h-1.2v1.7h4.5v-1.7h-1.1l-3-4.3 3-4.4h1v-1.7h-4.4v1.7h1.2l-1.6 2.5c0 0.1-0.1 0.2-0.2 0.3 -0.1 0.1-0.1 0.2-0.1 0.2l0 0h0c0 0 0-0.1-0.1-0.2 -0.1-0.1-0.2-0.2-0.3-0.4l-1.7-2.5h1.2v-1.7h-4.5v1.7h1.1l3 4.2 -3 4.4L-276.3 429.2 -276.3 429.2z"/></svg>
