<?xml version="1.0" encoding="iso-8859-1"?>
<!-- Generator: Adobe Illustrator 19.1.0, SVG Export Plug-In . SVG Version: 6.00 Build 0)  -->
<!DOCTYPE svg PUBLIC "-//W3C//DTD SVG 1.1//EN" "http://www.w3.org/Graphics/SVG/1.1/DTD/svg11.dtd">
<svg version="1.1" id="Layer_1" xmlns="http://www.w3.org/2000/svg" xmlns:xlink="http://www.w3.org/1999/xlink" x="0px" y="0px"
	 viewBox="-923 537 20 21" style="enable-background:new -923 537 20 21;" xml:space="preserve">
<title>icon_expenses</title>
<g>
	<path d="M-923,537v21h0.029l2.007-2.007l2,2l2-2l2,2l2-2l2,2l2-2l2,2l2-2l1.964,1.965V537H-923z M-913,551h-6v-2h6V551z M-911,547
		h-8v-2h8V547z M-911,543h-8v-2h8V543z M-907,551h-2v-2h2V551z M-907,547h-2v-2h2V547z M-907,543h-2v-2h2V543z"/>
</g>
</svg>
