<?xml version="1.0" encoding="utf-8"?>
<!-- Generator: Adobe Illustrator 19.1.0, SVG Export Plug-In . SVG Version: 6.00 Build 0)  -->
<!DOCTYPE svg PUBLIC "-//W3C//DTD SVG 1.1//EN" "http://www.w3.org/Graphics/SVG/1.1/DTD/svg11.dtd">
<svg version="1.1" id="Layer_1" xmlns="http://www.w3.org/2000/svg" xmlns:xlink="http://www.w3.org/1999/xlink" x="0px" y="0px"
	 viewBox="-982 1407.7 20 21" style="enable-background:new -982 1407.7 20 21;" xml:space="preserve">
<title>icon_expenses</title>
<desc>Created with Sketch.</desc>
<g id="Page-1">
	<g id="Expenses" transform="translate(-29.000000, -270.000000)">
		<g id="icon_expenses" transform="translate(27.000000, 268.000000)">
			<path d="M-960,1430.6v-21h-20v21h0l2-2l2,2l2-2l2,2l2-2l2,2l2-2l2,2l2-2L-960,1430.6z M-976,1421.7h6v2h-6V1421.7z M-976,1417.7
				h8v2h-8V1417.7z M-976,1413.7h8v2h-8V1413.7z M-966,1421.7h2v2h-2V1421.7z M-966,1417.7h2v2h-2V1417.7z M-966,1413.7h2v2h-2
				V1413.7z"/>
		</g>
	</g>
</g>
</svg>
