<svg xmlns="http://www.w3.org/2000/svg" version="1.1" x="0" y="0" viewBox="0 90 612 612" enable-background="new 0 90 612 612" xml:space="preserve"><path d="M306 625.5H76.5v-459H306c23 0 38.2-15.3 38.2-38.2S329 90 306 90H38.2C15.3 90 0 105.3 0 128.2v535.5c0 23 15.3 38.2 38.2 38.2H306c23 0 38.2-15.3 38.2-38.2S329 625.5 306 625.5zM600.5 369.2L600.5 369.2 474.3 243c-15.3-15.3-38.2-15.3-53.5 0s-15.3 38.2 0 53.6l61.2 61.2H267.8c-22.9 0-38.2 15.3-38.2 38.2 0 19.1 15.3 38.2 38.2 38.2H482l-61.2 61.2c-15.3 15.3-15.3 38.2 0 53.5s38.2 15.3 53.5 0l126.2-122.4 0 0c7.7-11.5 11.5-19.1 11.5-30.6S608.2 376.9 600.5 369.2z"/></svg>
