<?xml version="1.0" encoding="iso-8859-1"?>
<!-- Generator: Adobe Illustrator 19.1.0, SVG Export Plug-In . SVG Version: 6.00 Build 0)  -->
<!DOCTYPE svg PUBLIC "-//W3C//DTD SVG 1.1//EN" "http://www.w3.org/Graphics/SVG/1.1/DTD/svg11.dtd">
<svg version="1.1" id="Layer_1" xmlns="http://www.w3.org/2000/svg" xmlns:xlink="http://www.w3.org/1999/xlink" x="0px" y="0px"
	 viewBox="-173 64 612 611.9" style="enable-background:new -173 64 612 611.9;" xml:space="preserve">
<path d="M133,599.5H-96.5v-459H133c23,0,38.2-15.3,38.2-38.2S156,64,133,64h-267.8c-22.9,0-38.2,15.3-38.2,38.2v535.5
	c0,23,15.3,38.2,38.2,38.2H133c23,0,38.2-15.3,38.2-38.2S156,599.5,133,599.5z M427.5,343.2L301.3,217c-15.3-15.3-38.2-15.3-53.5,0
	s-15.3,38.2,0,53.6l61.2,61.2H94.8c-22.9,0-38.2,15.3-38.2,38.2c0,19.1,15.3,38.2,38.2,38.2H309l-61.2,61.2
	c-15.3,15.3-15.3,38.2,0,53.5s38.2,15.3,53.5,0l126.2-122.4c7.7-11.5,11.5-19.1,11.5-30.6S435.2,350.9,427.5,343.2z"/>
</svg>
