<?xml version="1.0" encoding="iso-8859-1"?>
<!-- Generator: Adobe Illustrator 19.1.0, SVG Export Plug-In . SVG Version: 6.00 Build 0)  -->
<!DOCTYPE svg PUBLIC "-//W3C//DTD SVG 1.1//EN" "http://www.w3.org/Graphics/SVG/1.1/DTD/svg11.dtd">
<svg version="1.1" id="Layer_1" xmlns="http://www.w3.org/2000/svg" xmlns:xlink="http://www.w3.org/1999/xlink" x="0px" y="0px"
	 viewBox="-459 261 40 40" style="enable-background:new -459 261 40 40;" xml:space="preserve">
<path d="M-439,301c-11,0-20-9-20-20s9-20,20-20s20,9,20,20S-428,301-439,301z M-439,265c-8.8,0-16,7.2-16,16s7.2,16,16,16
	s16-7.2,16-16S-430.2,265-439,265z M-439.4,287.4c-0.4,0.4-1,0.6-1.5,0.6c-0.6,0.1-1.3-0.1-1.8-0.6l-3.8-3.8c-0.8-0.8-0.8-2.2,0-3
	c0.8-0.8,2.2-0.8,3,0l2.5,2.4l7.4-7.4c0.8-0.8,2.2-0.8,3,0c0.8,0.8,0.8,2.2,0,3C-430.6,278.6-439.4,287.4-439.4,287.4z"/>
</svg>
