<?xml version="1.0" encoding="iso-8859-1"?>
<!-- Generator: Adobe Illustrator 19.1.0, SVG Export Plug-In . SVG Version: 6.00 Build 0)  -->
<!DOCTYPE svg PUBLIC "-//W3C//DTD SVG 1.1//EN" "http://www.w3.org/Graphics/SVG/1.1/DTD/svg11.dtd">
<svg version="1.1" id="Layer_1" xmlns="http://www.w3.org/2000/svg" xmlns:xlink="http://www.w3.org/1999/xlink" x="0px" y="0px"
	 viewBox="-923 537 20 19.992" style="enable-background:new -923 537 20 19.992;" xml:space="preserve">
<title>inspection</title>
<g>
	<path d="M-904.033,554.267c-0.056-0.056-0.112-0.112-0.168-0.141l-1.042-0.535c-0.028-0.028-0.084-0.056-0.112-0.084l-5.065-5.065
		c-0.151-0.14-0.384-0.14-0.535,0l-0.618,0.619c-0.141,0.15-0.141,0.385,0,0.535l5.064,5.064c0.029,0.029,0.056,0.085,0.085,0.113
		l0.535,1.041c0.038,0.063,0.086,0.12,0.141,0.169l1.378,0.928c0.179,0.11,0.409,0.087,0.562-0.056l0.62-0.619
		c0.143-0.154,0.166-0.384,0.055-0.563L-904.033,554.267z"/>
	<path d="M-916.496,546.417c0.15,0.14,0.383,0.14,0.533,0h0.001l2.391-2.391c0.141-0.15,0.141-0.385,0-0.535l-5.852-5.852
		c-0.76-0.76-2.11-0.845-2.926-0.085c-0.012,0.012-0.024,0.023-0.036,0.035c-0.812,0.8-0.821,2.107-0.021,2.919L-916.496,546.417z"
		/>
	<path d="M-915.906,551.846l7.765-7.765c0.085-0.085,0.169-0.085,0.282-0.056c1.295,0.478,2.786,0.197,3.798-0.845
		c0.924-0.929,1.278-2.282,0.928-3.545c-0.055-0.197-0.309-0.253-0.45-0.112l-1.266,1.211c-0.534,0.562-1.378,0.562-1.914,0h0.001
		c-0.535-0.537-0.535-1.405,0-1.942l1.237-1.237c0.142-0.142,0.057-0.367-0.14-0.423c-1.263-0.35-2.616,0.005-3.545,0.929
		c-0.992,0.996-1.321,2.475-0.844,3.798c0.038,0.097,0.016,0.207-0.056,0.282l-7.738,7.736c-0.085,0.085-0.168,0.085-0.282,0.057
		c-1.294-0.478-2.785-0.198-3.798,0.844c-0.984,0.984-1.265,2.335-0.927,3.574c0.056,0.197,0.309,0.252,0.45,0.112l1.238-1.238
		c0.537-0.535,1.404-0.535,1.941,0c0.535,0.537,0.535,1.404,0,1.941l-1.238,1.238c-0.141,0.14-0.085,0.393,0.112,0.45
		c1.21,0.337,2.589,0.056,3.546-0.929c0.992-0.996,1.321-2.475,0.844-3.798C-916,552.031-915.978,551.921-915.906,551.846z"/>
</g>
</svg>
