<?xml version="1.0" encoding="utf-8"?>
<!-- Generator: Adobe Illustrator 19.1.0, SVG Export Plug-In . SVG Version: 6.00 Build 0)  -->
<!DOCTYPE svg PUBLIC "-//W3C//DTD SVG 1.1//EN" "http://www.w3.org/Graphics/SVG/1.1/DTD/svg11.dtd">
<svg version="1.1" id="Layer_1" xmlns="http://www.w3.org/2000/svg" xmlns:xlink="http://www.w3.org/1999/xlink" x="0px" y="0px"
	 viewBox="-464 271 30 20" style="enable-background:new -464 271 30 20;" xml:space="preserve">
<style type="text/css">
	.st0{fill:none;}
</style>
<title>live</title>
<g>
	<polygon class="st0" points="-446.1,279.2 -447.4,283.6 -447.4,283.6 	"/>
	<polygon class="st0" points="-446.4,285.5 -446.3,285.5 -443.5,277 -443.5,277 	"/>
	<polygon class="st0" points="-447.4,283.6 -449.3,277 -449.3,277 -447.4,283.6 	"/>
	<polygon class="st0" points="-437,280.5 -437,281.8 -437,281.8 -437,280.5 -440.6,280.5 -440.6,280.5 	"/>
	<polygon class="st0" points="-452.5,285.5 -452.5,285.5 -452.5,277 	"/>
	<polygon class="st0" points="-436.8,278.5 -436.8,278.5 -436.8,277 	"/>
	<path d="M-435,271h-28c-0.6,0-1,0.4-1,1v18c0,0.6,0.4,1,1,1h28c0.6,0,1-0.4,1-1v-18C-434,271.4-434.4,271-435,271z M-455.5,285.5
		h-5.5V277h1.8v7v0h3.7V285.5z M-452.5,285.5h-1.8V277h1.8V285.5L-452.5,285.5z M-446.3,285.5L-446.3,285.5h-2.1l-2.8-8.5h2h0
		l1.9,6.6l1.3-4.4l0.7-2.2h1.9h0L-446.3,285.5z M-436.8,278.5h-3.8v2h3.6v1.4h0h-3.6v0v2.1v0h3.8v1.5h-5.6V277h5.6V278.5
		L-436.8,278.5z"/>
</g>
</svg>
