<?xml version="1.0" encoding="iso-8859-1"?>
<!-- Generator: Adobe Illustrator 19.1.0, SVG Export Plug-In . SVG Version: 6.00 Build 0)  -->
<!DOCTYPE svg PUBLIC "-//W3C//DTD SVG 1.1//EN" "http://www.w3.org/Graphics/SVG/1.1/DTD/svg11.dtd">
<svg version="1.1" id="Layer_1" xmlns="http://www.w3.org/2000/svg" xmlns:xlink="http://www.w3.org/1999/xlink" x="0px" y="0px"
	 viewBox="-470 271 19 20" style="enable-background:new -470 271 19 20;" xml:space="preserve">
<path d="M-453.8,274.8l-1.9,2.3c1.1,1.2,1.7,2.7,1.7,4.4c0,3.6-2.9,6.5-6.5,6.5s-6.5-2.9-6.5-6.5c0-1.7,0.7-3.2,1.7-4.4l-1.9-2.3
	c-1.7,1.7-2.8,4.1-2.8,6.7c0,5.2,4.3,9.5,9.5,9.5s9.5-4.3,9.5-9.5C-451,278.9-452.1,276.5-453.8,274.8z M-461,280h1c0.6,0,1-0.4,1-1
	v-7c0-0.6-0.4-1-1-1h-1c-0.6,0-1,0.4-1,1v7C-462,279.6-461.6,280-461,280z"/>
</svg>
