<?xml version="1.0" encoding="iso-8859-1"?>
<!-- Generator: Adobe Illustrator 19.1.0, SVG Export Plug-In . SVG Version: 6.00 Build 0)  -->
<!DOCTYPE svg PUBLIC "-//W3C//DTD SVG 1.1//EN" "http://www.w3.org/Graphics/SVG/1.1/DTD/svg11.dtd">
<svg version="1.1" id="Layer_1" xmlns="http://www.w3.org/2000/svg" xmlns:xlink="http://www.w3.org/1999/xlink" x="0px" y="0px"
	 viewBox="-1212 942.233 20 23.333" style="enable-background:new -1212 942.233 20 23.333;" xml:space="preserve">
<g>
	<path d="M-1192.25,948.15c-0.25-0.417-0.417-0.75-0.667-1l0,0l-4-4c-0.25-0.25-0.583-0.5-1-0.667s-0.833-0.25-1.167-0.25h-11.667
		c-0.417,0-0.667,0.083-0.917,0.333s-0.332,0.584-0.332,0.917v20.833c0,0.417,0.083,0.667,0.333,0.917s0.583,0.333,0.917,0.333h17.5
		c0.417,0,0.667-0.083,0.917-0.333s0.333-0.583,0.333-0.917v-15C-1192,948.983-1192.083,948.567-1192.25,948.15z M-1198.667,943.983
		c0.25,0.083,0.417,0.167,0.583,0.333l4.084,4.084c0.083,0.083,0.167,0.25,0.25,0.5h-4.917V943.983z M-1193.667,963.9h-16.667v-20
		h10v5.417c0,0.417,0.083,0.667,0.333,0.917s0.583,0.333,0.917,0.333h5.417V963.9z"/>
	<path d="M-1200.333,956.15c-0.833-0.583-1.417-1.667-1.917-3.083c0.083-0.583,0.167-1.417,0.167-2.5v-0.5
		c0.083,0,0.083,0,0.083-0.083c0.083-0.417,0.083-0.75-0.083-0.917c-0.083-0.083-0.25-0.167-0.417-0.167h-0.25
		c-0.333,0-0.5,0.167-0.583,0.5c-0.083,0.417-0.167,1-0.083,1.667c0.083,0.667,0.25,1.333,0.417,2.083
		c-0.333,1.083-0.75,2.25-1.333,3.417c-0.5,1-1,1.833-1.417,2.583v-0.083c-0.083-0.167-0.25-0.167-0.333-0.083
		c-0.75,0.417-1.333,0.833-1.75,1.25s-0.667,0.833-0.75,1.167c0,0.25,0,0.417,0.083,0.5l0.083,0.083l0.333,0.167
		c0.083,0.083,0.167,0.083,0.333,0.083c0.75,0,1.833-1.167,3.167-3.417c1.5-0.5,3.167-0.917,5.083-1.083
		c0.5,0.25,1.083,0.5,1.667,0.667c0.583,0.167,1.083,0.25,1.5,0.25c0.583,0,0.833-0.167,0.917-0.5c0.167-0.25,0.167-0.5,0-0.667
		c-0.25-0.417-1.083-0.667-2.333-0.667c-0.5,0-1,0-1.5,0.083C-1199.667,956.65-1200.083,956.4-1200.333,956.15z M-1207.833,961.483
		c0.083-0.25,0.333-0.583,0.583-1c0.333-0.333,0.75-0.75,1.167-1.083C-1206.75,960.567-1207.417,961.317-1207.833,961.483z
		 M-1202.667,949.567L-1202.667,949.567c0.083,0.083,0.167,0.167,0.25,0.5c-0.083,0-0.083,0.083-0.083,0.083
		c-0.083,0.333-0.083,0.583-0.083,0.583c-0.083,0.333-0.083,0.5-0.083,0.583C-1202.833,950.483-1202.833,949.9-1202.667,949.567z
		 M-1204.333,958.15c0.167-0.25,0.333-0.583,0.583-1.083c0.5-1,0.833-1.833,1.083-2.583c0.417,1,1,1.75,1.667,2.333l0.167,0.167
		c0.083,0,0.167,0.083,0.167,0.083C-1201.917,957.317-1203.167,957.65-1204.333,958.15z M-1195.917,957.9L-1195.917,957.9
		c0,0.083-0.083,0.083-0.25,0c-0.417,0-0.917-0.083-1.583-0.333C-1196.75,957.567-1196.083,957.733-1195.917,957.9z"/>
</g>
</svg>
