<svg xmlns="http://www.w3.org/2000/svg" version="1.1" x="0" y="0" viewBox="-283 406.9 24 28" enable-background="new -283 406.9 24 28" xml:space="preserve"><path fill="#444444" d="M-260.1 412.8c0.3 0.3 0.5 0.7 0.8 1.2 0.2 0.5 0.3 1 0.3 1.4v18c0 0.4-0.1 0.8-0.4 1.1 -0.3 0.3-0.6 0.4-1.1 0.4h-21c-0.4 0-0.8-0.1-1.1-0.4 -0.3-0.3-0.4-0.6-0.4-1.1v-25c0-0.4 0.1-0.8 0.4-1.1 0.3-0.3 0.6-0.4 1.1-0.4h14c0.4 0 0.9 0.1 1.4 0.3 0.5 0.2 0.9 0.5 1.2 0.8L-260.1 412.8zM-267 409v5.9h5.9c-0.1-0.3-0.2-0.5-0.3-0.6l-4.9-4.9C-266.5 409.2-266.7 409.1-267 409L-267 409zM-261 432.9v-16h-6.5c-0.4 0-0.8-0.1-1.1-0.4 -0.3-0.3-0.4-0.6-0.4-1.1v-6.5h-12v24H-261zM-269 423.6c0.3 0.3 0.8 0.6 1.3 0.9 0.6-0.1 1.2-0.1 1.8-0.1 1.5 0 2.5 0.3 2.8 0.8 0.2 0.2 0.2 0.5 0 0.8 0 0 0 0 0 0l0 0v0c-0.1 0.4-0.4 0.6-1.1 0.6 -0.5 0-1.1-0.1-1.8-0.3s-1.4-0.5-2-0.8c-2.3 0.2-4.3 0.7-6.1 1.3 -1.6 2.7-2.9 4.1-3.8 4.1 -0.2 0-0.3 0-0.4-0.1l-0.4-0.2c0 0 0 0-0.1-0.1 -0.1-0.1-0.1-0.3-0.1-0.6 0.1-0.4 0.4-0.9 0.9-1.4 0.5-0.5 1.2-1 2.1-1.5 0.1-0.1 0.3-0.1 0.4 0.1 0 0 0 0 0 0.1 0.5-0.9 1.1-1.9 1.7-3.1 0.7-1.4 1.2-2.8 1.6-4.1 -0.2-0.9-0.4-1.7-0.5-2.5s0-1.5 0.1-2c0.1-0.4 0.3-0.6 0.7-0.6h0.3c0.2 0 0.4 0.1 0.5 0.2 0.2 0.2 0.2 0.6 0.1 1.1 0 0.1 0 0.1-0.1 0.1 0 0 0 0.1 0 0.1v0.5c0 1.3-0.1 2.3-0.2 3C-270.7 421.6-270 422.9-269 423.6L-269 423.6zM-278 430c0.5-0.2 1.3-1.1 2.1-2.5 -0.5 0.4-1 0.9-1.4 1.3C-277.6 429.3-277.9 429.7-278 430L-278 430zM-271.8 415.7c-0.2 0.4-0.2 1.1 0 2.1 0-0.1 0-0.3 0.1-0.7 0 0 0-0.3 0.1-0.7 0 0 0-0.1 0.1-0.1 0 0 0 0 0 0s0 0 0 0c0 0 0 0 0 0C-271.6 415.9-271.7 415.8-271.8 415.7 -271.8 415.6-271.8 415.6-271.8 415.7L-271.8 415.7 -271.8 415.7zM-273.8 426c1.4-0.6 2.9-1 4.4-1.3 0 0-0.1-0.1-0.2-0.1 -0.1-0.1-0.2-0.2-0.2-0.2 -0.8-0.7-1.5-1.6-2-2.8 -0.3 0.9-0.7 1.9-1.3 3.1C-273.4 425.3-273.6 425.7-273.8 426L-273.8 426zM-263.7 425.7c-0.2-0.2-1-0.4-2.2-0.4 0.8 0.3 1.4 0.4 1.9 0.4C-263.8 425.8-263.7 425.8-263.7 425.7 -263.6 425.8-263.6 425.8-263.7 425.7L-263.7 425.7z"/></svg>
