<?xml version="1.0" encoding="iso-8859-1"?>
<!-- Generator: Adobe Illustrator 19.1.0, SVG Export Plug-In . SVG Version: 6.00 Build 0)  -->
<!DOCTYPE svg PUBLIC "-//W3C//DTD SVG 1.1//EN" "http://www.w3.org/Graphics/SVG/1.1/DTD/svg11.dtd">
<svg version="1.1" id="Layer_1" xmlns="http://www.w3.org/2000/svg" xmlns:xlink="http://www.w3.org/1999/xlink" x="0px" y="0px"
	 viewBox="-921.001 537 15.001 19.992" style="enable-background:new -921.001 537 15.001 19.992;" xml:space="preserve">
<title>places</title>
<g>
	<path d="M-906,544.711c0.058-4.2-3.3-7.652-7.5-7.711c-4.2,0.059-7.557,3.511-7.5,7.711c-0.002,1.648,0.518,3.254,1.485,4.589
		l6.015,7.692l6.017-7.692l-0.001,0.001C-906.517,547.966-905.998,546.359-906,544.711z M-913.488,547.493
		c-0.036,0.001-0.073,0.001-0.109,0c-1.655-0.029-2.973-1.393-2.945-3.048c0.029-1.655,1.393-2.973,3.048-2.945v0.001
		c1.595,0.04,2.879,1.321,2.922,2.916C-910.528,546.071-911.833,547.449-913.488,547.493z"/>
</g>
</svg>
