<svg xmlns="http://www.w3.org/2000/svg" version="1.1" x="0" y="0" viewBox="0 0 26 26" enable-background="new 0 0 26 26" xml:space="preserve"><path fill-rule="evenodd" clip-rule="evenodd" d="M13 23C7.5 23 3 18.5 3 13S7.5 3 13 3c5.5 0 10 4.5 10 10S18.5 23 13 23zM13 6c-3.9 0-7 3.1-7 7 0 3.9 3.1 7 7 7s7-3.1 7-7C20 9.1 16.9 6 13 6zM13 16.5c-1.9 0-3.5-1.6-3.5-3.5s1.6-3.5 3.5-3.5 3.5 1.6 3.5 3.5S14.9 16.5 13 16.5z"/><path fill-rule="evenodd" clip-rule="evenodd" d="M13 0c1.1 0 2 0.9 2 2v1.5c0 1.1-0.9 2-2 2s-2-0.9-2-2V2C11 0.9 11.9 0 13 0z"/><path fill-rule="evenodd" clip-rule="evenodd" d="M13 20.5c1.1 0 2 0.9 2 2V24c0 1.1-0.9 2-2 2s-2-0.9-2-2v-1.5C11 21.4 11.9 20.5 13 20.5z"/><path fill-rule="evenodd" clip-rule="evenodd" d="M22.5 11H24c1.1 0 2 0.9 2 2s-0.9 2-2 2h-1.5c-1.1 0-2-0.9-2-2S21.4 11 22.5 11z"/><path fill-rule="evenodd" clip-rule="evenodd" d="M2 11h1.5c1.1 0 2 0.9 2 2s-0.9 2-2 2H2c-1.1 0-2-0.9-2-2S0.9 11 2 11z"/></svg>
