<svg xmlns="http://www.w3.org/2000/svg" version="1.1" x="0" y="0" viewBox="296.5 386.5 19 17" enable-background="new 296.5 386.5 19 17" xml:space="preserve"><path fill-rule="evenodd" clip-rule="evenodd" d="M296.5 403.5h9v-1h-9V403.5zM296.5 386.5V400c0 0 1.5-0.2 3.7 0.2 2.4 0.4 5.3 1.3 5.3 1.3V388c0 0-2.9-0.9-5.2-1.3C298.1 386.4 296.5 386.5 296.5 386.5zM306.5 403.5h9v-1h-9V403.5zM311.7 386.7c-2.3 0.4-5.2 1.3-5.2 1.3v13.5c0 0 3-0.9 5.3-1.3 2.1-0.4 3.7-0.2 3.7-0.2v-13.5C315.5 386.5 313.9 386.4 311.7 386.7z"/></svg>
