<?xml version="1.0" encoding="iso-8859-1"?>
<!-- Generator: Adobe Illustrator 19.1.0, SVG Export Plug-In . SVG Version: 6.00 Build 0)  -->
<!DOCTYPE svg PUBLIC "-//W3C//DTD SVG 1.1//EN" "http://www.w3.org/Graphics/SVG/1.1/DTD/svg11.dtd">
<svg version="1.1" id="Layer_1" xmlns="http://www.w3.org/2000/svg" xmlns:xlink="http://www.w3.org/1999/xlink" x="0px" y="0px"
	 viewBox="-471 272.925 15.525 16" style="enable-background:new -471 272.925 15.525 16;" xml:space="preserve">
<path d="M-458.5,284.2l2.8,2.8c0.3,0.3,0.3,0.8,0,1.1l-0.6,0.6c-0.3,0.3-0.8,0.3-1.1,0l-2.8-2.8c-0.3-0.3-0.3-0.7-0.1-1l-0.6-0.6
	c-2.5,1.9-6,1.8-8.3-0.5c-2.4-2.5-2.4-6.5,0-9c2.4-2.5,6.4-2.5,8.9,0c2.4,2.4,2.4,6.2,0.3,8.7l0.6,0.6
	C-459.1,283.9-458.7,284-458.5,284.2z M-461.7,276.2c-1.7-1.7-4.3-1.7-6,0c-1.7,1.7-1.7,4.3,0,6c1.7,1.7,4.3,1.7,6,0
	C-460.1,280.6-460.1,277.9-461.7,276.2z"/>
</svg>
