<svg xmlns="http://www.w3.org/2000/svg" version="1.1" x="0" y="0" viewBox="0 0 24 24" enable-background="new 0 0 24 24" xml:space="preserve"><path d="M24 13.6v-3.2l-1.7-0.6c-0.7-0.2-1.2-0.7-1.5-1.4 0 0 0 0 0 0 -0.3-0.7-0.3-1.4 0.1-2l0.8-1.7 -2.3-2.3 -1.7 0.8c-0.6 0.3-1.4 0.3-2 0.1 0 0 0 0 0 0 -0.7-0.3-1.2-0.8-1.4-1.5L13.6 0h-3.2L9.8 1.7C9.5 2.4 9 2.9 8.4 3.2c0 0 0 0 0 0C7.7 3.5 7 3.5 6.3 3.2L4.7 2.4 2.4 4.7l0.8 1.7c0.3 0.6 0.3 1.4 0.1 2 0 0 0 0 0 0C2.9 9 2.4 9.5 1.7 9.8L0 10.4v3.2l1.7 0.6c0.7 0.2 1.2 0.7 1.5 1.4 0 0 0 0 0 0 0.3 0.7 0.3 1.4-0.1 2l-0.8 1.7 2.3 2.3 1.7-0.8c0.6-0.3 1.4-0.3 2-0.1 0 0 0 0 0 0 0.7 0.3 1.2 0.8 1.4 1.5l0.6 1.7h3.2l0.6-1.7c0.2-0.7 0.8-1.2 1.4-1.5 0 0 0 0 0 0 0.6-0.3 1.4-0.3 2 0.1l1.7 0.8 2.3-2.3 -0.8-1.7c-0.3-0.6-0.3-1.4-0.1-2 0 0 0 0 0 0 0.3-0.7 0.8-1.2 1.5-1.4L24 13.6zM12 16.4c-2.4 0-4.4-2-4.4-4.4s2-4.4 4.4-4.4c2.4 0 4.4 2 4.4 4.4S14.4 16.4 12 16.4z"/></svg>
