<?xml version="1.0" encoding="iso-8859-1"?>
<!-- Generator: Adobe Illustrator 19.1.0, SVG Export Plug-In . SVG Version: 6.00 Build 0)  -->
<!DOCTYPE svg PUBLIC "-//W3C//DTD SVG 1.1//EN" "http://www.w3.org/Graphics/SVG/1.1/DTD/svg11.dtd">
<svg version="1.1" id="Layer_1" xmlns="http://www.w3.org/2000/svg" xmlns:xlink="http://www.w3.org/1999/xlink" x="0px" y="0px"
	 viewBox="-923 537 20 20" style="enable-background:new -923 537 20 20;" xml:space="preserve">
<title>settings</title>
<g>
	<path d="M-904.456,545.136c-1.085-0.387-1.651-1.58-1.265-2.665c0.024-0.066,0.051-0.131,0.081-0.195l0.663-1.394l-1.904-1.905
		l-1.395,0.662c-1.039,0.495-2.283,0.054-2.778-0.985c-0.031-0.065-0.058-0.131-0.082-0.199l-0.517-1.455h-2.693l-0.518,1.455
		c-0.386,1.085-1.578,1.651-2.663,1.266c-0.067-0.024-0.133-0.051-0.197-0.082l-1.394-0.662l-1.906,1.903l0.663,1.394
		c0.495,1.038,0.055,2.282-0.983,2.777c-0.065,0.031-0.132,0.059-0.201,0.083l-1.455,0.519v2.694l1.455,0.517
		c1.085,0.387,1.651,1.58,1.265,2.665c-0.024,0.066-0.051,0.131-0.081,0.195l-0.662,1.395l1.904,1.904l1.394-0.663
		c1.038-0.495,2.282-0.055,2.777,0.983c0.031,0.065,0.059,0.132,0.083,0.201l0.518,1.456h2.694l0.514-1.446
		c0.2-0.56,0.627-1.01,1.176-1.239c0.54-0.225,1.15-0.21,1.678,0.042l1.404,0.667l1.904-1.905l-0.663-1.395
		c-0.494-1.041-0.05-2.285,0.991-2.779c0.063-0.03,0.128-0.057,0.194-0.08l1.455-0.517v-0.002v-2.693L-904.456,545.136z
		 M-913,550.496c-1.93,0.046-3.531-1.481-3.578-3.41c-0.046-1.93,1.481-3.531,3.41-3.578c0.056-0.001,0.111-0.001,0.167,0
		c1.93,0.046,3.457,1.648,3.41,3.578C-909.634,548.95-911.135,550.451-913,550.496z"/>
</g>
</svg>
