<?xml version="1.0" encoding="iso-8859-1"?>
<!-- Generator: Adobe Illustrator 19.1.0, SVG Export Plug-In . SVG Version: 6.00 Build 0)  -->
<!DOCTYPE svg PUBLIC "-//W3C//DTD SVG 1.1//EN" "http://www.w3.org/Graphics/SVG/1.1/DTD/svg11.dtd">
<svg version="1.1" id="Layer_1" xmlns="http://www.w3.org/2000/svg" xmlns:xlink="http://www.w3.org/1999/xlink" x="0px" y="0px"
	 viewBox="-457 266 36 29.7" style="enable-background:new -457 266 36 29.7;" xml:space="preserve">
<path d="M-425.3,295.7l-2.8-2.9c1.9-2.4,3.1-5.4,3.1-8.8c0-7.7-6.3-14-14-14s-14,6.3-14,14c0,3.4,1.2,6.4,3.1,8.8l-2.8,2.9
	c-2.7-3.2-4.3-7.2-4.3-11.7c0-10,8-18,18-18s18,8,18,18C-421,288.5-422.6,292.5-425.3,295.7z M-451,283h3v2h-3V283z M-447,274.6
	l2.4,2.4l-1.4,1.4l-2.4-2.4L-447,274.6z M-438,272v3h-2v-3H-438z M-430,278.9l-9.1,9.1l-2.9-2.9l9.1-9.1L-430,278.9z"/>
</svg>
