<svg xmlns="http://www.w3.org/2000/svg" version="1.1" x="0" y="0" viewBox="0 0 17 17" enable-background="new 0 0 17 17" xml:space="preserve"><path fill-rule="evenodd" clip-rule="evenodd" d="M14.5 2.5c-3.3-3.3-8.7-3.3-12.1 0 -3.3 3.3-3.3 8.7 0 12.1 3.3 3.3 8.7 3.3 12.1 0C17.9 11.2 17.9 5.8 14.5 2.5zM12.1 2.2c0 0 1 0.7 1.6 1.2C14.2 3.9 14.9 5 14.9 5L13.1 6c0 0-0.4-0.7-1-1.2C11.6 4.3 11 3.9 11 3.9L12.1 2.2zM3.4 3.4c1-1 1.6-1.2 1.6-1.2L6 3.9c0 0-0.7 0.4-1.2 1C4.3 5.4 3.9 6 3.9 6L2.2 5C2.2 5 2.3 4.4 3.4 3.4zM5 14.9c0 0-0.6-0.2-1.6-1.2s-1.2-1.6-1.2-1.6L3.9 11c0 0 0.4 0.7 0.9 1.2C5.4 12.7 6 13.1 6 13.1L5 14.9zM5.7 11.4c-1.6-1.6-1.6-4.1 0-5.7s4.1-1.6 5.7 0c1.6 1.6 1.6 4.1 0 5.7C9.8 12.9 7.3 12.9 5.7 11.4zM13.6 13.7c-1 1-1.6 1.2-1.6 1.2L11 13.1c0 0 0.6-0.3 1.1-0.9 0.6-0.6 1-1.3 1-1.3l1.8 1.1C14.9 12.1 14.7 12.7 13.6 13.7z"/></svg>
