<?xml version="1.0" encoding="iso-8859-1"?>
<!-- Generator: Adobe Illustrator 19.1.0, SVG Export Plug-In . SVG Version: 6.00 Build 0)  -->
<!DOCTYPE svg PUBLIC "-//W3C//DTD SVG 1.1//EN" "http://www.w3.org/Graphics/SVG/1.1/DTD/svg11.dtd">
<svg version="1.1" id="Layer_1" xmlns="http://www.w3.org/2000/svg" xmlns:xlink="http://www.w3.org/1999/xlink" x="0px" y="0px"
	 viewBox="-471.075 272.025 17.125 17.05" style="enable-background:new -471.075 272.025 17.125 17.05;" xml:space="preserve">
<path d="M-456.5,274.5c-3.3-3.3-8.7-3.3-12.1,0c-3.3,3.3-3.3,8.7,0,12.1c3.3,3.3,8.7,3.3,12.1,0
	C-453.1,283.2-453.1,277.8-456.5,274.5z M-458.9,274.2c0,0,1,0.7,1.6,1.2c0.5,0.5,1.2,1.6,1.2,1.6l-1.8,1c0,0-0.4-0.7-1-1.2
	c-0.5-0.5-1.1-0.9-1.1-0.9L-458.9,274.2z M-467.6,275.4c1-1,1.6-1.2,1.6-1.2l1,1.7c0,0-0.7,0.4-1.2,1c-0.5,0.5-0.9,1.1-0.9,1.1
	l-1.7-1C-468.8,277-468.7,276.4-467.6,275.4z M-466,286.9c0,0-0.6-0.2-1.6-1.2s-1.2-1.6-1.2-1.6l1.7-1.1c0,0,0.4,0.7,0.9,1.2
	c0.6,0.5,1.2,0.9,1.2,0.9L-466,286.9z M-465.3,283.4c-1.6-1.6-1.6-4.1,0-5.7c1.6-1.6,4.1-1.6,5.7,0c1.6,1.6,1.6,4.1,0,5.7
	C-461.2,284.9-463.7,284.9-465.3,283.4z M-457.4,285.7c-1,1-1.6,1.2-1.6,1.2l-1-1.8c0,0,0.6-0.3,1.1-0.9c0.6-0.6,1-1.3,1-1.3
	l1.8,1.1C-456.1,284.1-456.3,284.7-457.4,285.7z"/>
</svg>
