<?xml version="1.0" encoding="iso-8859-1"?>
<!-- Generator: Adobe Illustrator 19.1.0, SVG Export Plug-In . SVG Version: 6.00 Build 0)  -->
<!DOCTYPE svg PUBLIC "-//W3C//DTD SVG 1.1//EN" "http://www.w3.org/Graphics/SVG/1.1/DTD/svg11.dtd">
<svg version="1.1" id="Layer_1" xmlns="http://www.w3.org/2000/svg" xmlns:xlink="http://www.w3.org/1999/xlink" x="0px" y="0px"
	 viewBox="-923 537 20 20" style="enable-background:new -923 537 20 20;" xml:space="preserve">
<title>trip</title>
<g>
	<path d="M-913,537c-5.523,0-10,4.477-10,10s4.477,10,10,10s10-4.477,10-10S-907.477,537-913,537z M-913,539.11
		c3.555,0.002,6.67,2.382,7.605,5.812h-15.209C-919.669,541.492-916.555,539.112-913,539.11z M-920.888,547.057
		c3.582,0.586,6.349,4.065,6.606,7.72C-918.069,554.155-920.859,550.895-920.888,547.057z M-913.038,549.606v0.002
		c-0.865,0-1.567-0.702-1.567-1.567s0.702-1.567,1.567-1.567c0.053-0.003,0.106-0.003,0.158,0c0.865,0.044,1.531,0.78,1.487,1.645
		S-912.173,549.65-913.038,549.606z M-911.718,554.778c0.256-3.656,3.023-7.134,6.606-7.722v0.001
		C-905.141,550.896-907.93,554.155-911.718,554.778z"/>
</g>
</svg>
