<svg xmlns="http://www.w3.org/2000/svg" version="1.1" x="0" y="0" viewBox="298.5 389 19 19" enable-background="new 298.5 389 19 19" xml:space="preserve"><path fill-rule="evenodd" clip-rule="evenodd" d="M308 389c-5.2 0-9.5 4.3-9.5 9.5s4.3 9.5 9.5 9.5 9.5-4.3 9.5-9.5S313.2 389 308 389zM308 391c3.4 0 6.3 2.3 7.2 5.5h-14.4C301.7 393.3 304.6 391 308 391zM308 401c-0.9 0-1.5-0.7-1.5-1.5 0-0.8 0.6-1.5 1.5-1.5 0.9 0 1.5 0.7 1.5 1.5C309.5 400.3 308.8 401 308 401zM300.5 398.6c3.4 0.6 6 3.9 6.3 7.3C303.2 405.3 300.5 402.3 300.5 398.6zM309.2 405.9c0.2-3.5 2.9-6.8 6.3-7.3C315.5 402.3 312.8 405.3 309.2 405.9z"/></svg>
