<svg xmlns="http://www.w3.org/2000/svg" version="1.1" x="0" y="0" viewBox="0 0 19 15" enable-background="new 0 0 19 15" xml:space="preserve"><path fill-rule="evenodd" clip-rule="evenodd" d="M18.7 5H17l-1.7-3.7c0 0-1.6-1.3-6-1.3C4.9 0 3.7 1.3 3.7 1.3L2 5H0.3C0.3 5 0 5 0 5.5c0 0.5 0 0.6 0 0.6s0 0.3 0.5 0.5C1 6.7 1.1 6.7 1.1 6.7S0.7 7 0.6 8.1C0.5 9.1 0.5 9.5 0.5 9.5v4.8c0 0 0 0.7 0.7 0.7 0.8 0 0.9 0 1.6 0 0.7 0 0.7-0.7 0.7-0.7V13h12v1.3c0 0 0 0.7 0.7 0.7 0.7 0 0.8 0 1.6 0 0.7 0 0.7-0.7 0.7-0.7V9.5c0 0 0-0.4-0.1-1.4 -0.1-1.1-0.5-1.4-0.5-1.4s0 0 0.6-0.2C19 6.4 19 6.1 19 6.1s0-0.1 0-0.6C19 5 18.7 5 18.7 5zM4.9 2.4c0 0 1.4-0.9 4.4-0.9 3 0 4.8 0.9 4.8 0.9l1 2.6H3.9L4.9 2.4zM4 10H3c-0.6 0-1-0.4-1-1s0.4-1 1-1h1c0.6 0 1 0.4 1 1S4.6 10 4 10zM11 10H8c-0.6 0-1-0.4-1-1s0.4-1 1-1h3c0.6 0 1 0.4 1 1S11.6 10 11 10zM16 10h-1c-0.6 0-1-0.4-1-1s0.4-1 1-1h1c0.6 0 1 0.4 1 1S16.6 10 16 10z"/></svg>
