<?xml version="1.0" encoding="iso-8859-1"?>
<!-- Generator: Adobe Illustrator 19.1.0, SVG Export Plug-In . SVG Version: 6.00 Build 0)  -->
<!DOCTYPE svg PUBLIC "-//W3C//DTD SVG 1.1//EN" "http://www.w3.org/Graphics/SVG/1.1/DTD/svg11.dtd">
<svg version="1.1" xmlns="http://www.w3.org/2000/svg" xmlns:xlink="http://www.w3.org/1999/xlink" x="0px" y="0px"
	 viewBox="-928 546 18 16" style="enable-background:new -928 546 18 16;" xml:space="preserve">
<g id="Layer_1">
	<title>vehicles</title>
	<g>
		<path d="M-912.08,547c-0.213-0.601-0.782-1.002-1.42-1h-11c-0.638-0.002-1.207,0.399-1.42,1l-2.08,6v8c0,0.552,0.448,1,1,1h1
			c0.552,0,1-0.448,1-1v-1h12v1c0,0.552,0.448,1,1,1h1c0.552,0,1-0.448,1-1v-8L-912.08,547z M-924.5,557c-0.828,0-1.5-0.672-1.5-1.5
			s0.672-1.5,1.5-1.5s1.5,0.672,1.5,1.5S-923.672,557-924.5,557z M-913.5,557c-0.828,0-1.5-0.672-1.5-1.5s0.672-1.5,1.5-1.5
			s1.5,0.672,1.5,1.5S-912.672,557-913.5,557z M-926,552l1.5-4.5h11l1.5,4.5H-926z"/>
	</g>
</g>
<g id="nyt_x5F_exporter_x5F_info" style="display:none;">
	<text transform="matrix(1 0 0 1 -470 289)" style="display:inline;"><tspan x="0" y="0" style="font-family:'MyriadPro-Regular'; font-size:12px;">&lt;nyt_prefs&gt;</tspan><tspan x="0" y="14.4" style="font-family:'MyriadPro-Regular'; font-size:12px;">  &lt;nyt_prefix/&gt;</tspan><tspan x="0" y="28.8" style="font-family:'MyriadPro-Regular'; font-size:12px;">  &lt;nyt_suffix/&gt;</tspan><tspan x="0" y="43.2" style="font-family:'MyriadPro-Regular'; font-size:12px;">  &lt;nyt_base_path&gt;~/Desktop&lt;/nyt_base_path&gt;</tspan><tspan x="0" y="57.6" style="font-family:'MyriadPro-Regular'; font-size:12px;">  &lt;nyt_scaling&gt;100%&lt;/nyt_scaling&gt;</tspan><tspan x="0" y="72" style="font-family:'MyriadPro-Regular'; font-size:12px;">  &lt;nyt_transparency&gt;true&lt;/nyt_transparency&gt;</tspan><tspan x="0" y="86.4" style="font-family:'MyriadPro-Regular'; font-size:12px;">  &lt;nyt_embedImage&gt;true&lt;/nyt_embedImage&gt;</tspan><tspan x="0" y="100.8" style="font-family:'MyriadPro-Regular'; font-size:12px;">  &lt;nyt_embedFont&gt;true&lt;/nyt_embedFont&gt;</tspan><tspan x="0" y="115.2" style="font-family:'MyriadPro-Regular'; font-size:12px;">  &lt;nyt_trimEdges&gt;true&lt;/nyt_trimEdges&gt;</tspan><tspan x="0" y="129.6" style="font-family:'MyriadPro-Regular'; font-size:12px;">  &lt;nyt_innerPadding&gt;false&lt;/nyt_innerPadding&gt;</tspan><tspan x="0" y="144" style="font-family:'MyriadPro-Regular'; font-size:12px;">  &lt;nyt_format&gt;PNG 24&lt;/nyt_format&gt;</tspan><tspan x="0" y="158.4" style="font-family:'MyriadPro-Regular'; font-size:12px;">  &lt;nyt_artboards&gt;all&lt;/nyt_artboards&gt;</tspan><tspan x="0" y="172.8" style="font-family:'MyriadPro-Regular'; font-size:12px;">  &lt;nyt_layers&gt;all&lt;/nyt_layers&gt;</tspan><tspan x="0" y="187.2" style="font-family:'MyriadPro-Regular'; font-size:12px;">  &lt;nyt_exportArtboards&gt;false&lt;/nyt_exportArtboards&gt;</tspan><tspan x="0" y="201.6" style="font-family:'MyriadPro-Regular'; font-size:12px;">  &lt;nyt_ignoreWarnings&gt;false&lt;/nyt_ignoreWarnings&gt;</tspan><tspan x="0" y="216" style="font-family:'MyriadPro-Regular'; font-size:12px;">&lt;/nyt_prefs&gt;</tspan></text>
</g>
</svg>
