<svg xmlns="http://www.w3.org/2000/svg" version="1.1" x="0" y="0" viewBox="0 0 20 20" enable-background="new 0 0 20 20" xml:space="preserve"><path fill-rule="evenodd" clip-rule="evenodd" d="M2.2 6.7L0.8 5.9c-0.4 0.9-0.7 2-0.8 3h1.6C1.7 8.2 1.9 7.4 2.2 6.7zM8.9 1.6V0c-1.1 0.1-2.1 0.4-3 0.8l0.8 1.4C7.4 1.9 8.2 1.7 8.9 1.6zM18.4 8.9H20c-0.1-1.1-0.4-2.1-0.8-3l-1.4 0.8C18.1 7.4 18.3 8.2 18.4 8.9zM3.3 15.1l-1.4 0.8c0.6 0.8 1.4 1.6 2.2 2.2l0.8-1.4C4.3 16.3 3.7 15.7 3.3 15.1zM14.1 0.8c-0.9-0.4-2-0.7-3-0.8v1.6c0.8 0.1 1.5 0.3 2.2 0.6L14.1 0.8zM16.7 4.9l1.4-0.8c-0.6-0.8-1.4-1.6-2.2-2.2l-0.8 1.4C15.7 3.7 16.3 4.3 16.7 4.9zM1.6 11.1H0c0.1 1.1 0.4 2.1 0.8 3l1.4-0.8C1.9 12.6 1.7 11.8 1.6 11.1zM15.1 16.7l0.8 1.4c0.8-0.6 1.6-1.4 2.2-2.2l-1.4-0.8C16.3 15.7 15.7 16.3 15.1 16.7zM10 4.5c-2.5 0-4.5 1.9-4.5 4.4C5.5 11.9 10 16 10 16s4.5-4 4.5-7.1C14.5 6.4 12.5 4.5 10 4.5zM10 11c-1.1 0-2-0.9-2-2 0-1.1 0.9-2 2-2 1.1 0 2 0.9 2 2C12 10.1 11.1 11 10 11zM1.9 4.1l1.4 0.8c0.5-0.6 1-1.2 1.6-1.6L4.1 1.9C3.2 2.5 2.5 3.2 1.9 4.1zM17.8 13.3l1.4 0.8c0.4-0.9 0.7-2 0.8-3h-1.6C18.3 11.8 18.1 12.6 17.8 13.3zM11.1 18.4V20c1.1-0.1 2.1-0.4 3-0.8l-0.8-1.4C12.6 18.1 11.8 18.3 11.1 18.4zM5.9 19.2c0.9 0.4 2 0.7 3 0.8v-1.6c-0.8-0.1-1.5-0.3-2.2-0.6L5.9 19.2z"/></svg>
